# xmcd
#
# Track frame offsets:
#	150
#	11100
#	20779
#	32242
#	43764
#	54352
#	64952
#	76788
#	86996
#	99289
#	109684
#	122515
#	131982
#	142027
#	154424
#	167000
#	177712
#	187599
#	198403
#	210080
#	221305
#	232835
#	245963
#	259898
#	272982
#
# Disc length: 3784 seconds
#
# Revision: 0
# Processed by: cddbd v1.5.1PL2 Copyright (c) Steve Scherf et al.
# Submitted via: EasyCDDAExtractor 9.1.3.1
#
DISCID=6b0ec619
DTITLE=Various Artist - New Orleans Guitar(1953-54) - Disc B (Smiley Lewis and 
DTITLE=Boo Breeding)
DYEAR=2006
DGENRE=Blues
TTITLE0=Smiley Lewis - Big Mamou
TTITLE1=Smiley Lewis - Play Girl
TTITLE2=Smiley Lewis - I Love You For Sentimental Reasons
TTITLE3=Smiley Lewis - Lying Woman
TTITLE4=Smiley Lewis - Little Fernandez
TTITLE5=Smiley Lewis - It's Music
TTITLE6=Smiley Lewis - Show Me The Way
TTITLE7=Smiley Lewis - Down The Road
TTITLE8=Smiley Lewis - Blue Monday
TTITLE9=Smiley Lewis - The Rocks
TTITLE10=Smiley Lewis - That Certain Door
TTITLE11=Smiley Lewis - Nobody Knows
TTITLE12=Smiley Lewis - Can't Stop Loving You
TTITLE13=Smiley Lewis - Ooh, La, La
TTITLE14=Smiley Lewis - Too Many Drivers
TTITLE15=Smiley Lewis - Lost Weekend
TTITLE16=Smiley Lewis - Jailbird
TTITLE17=Smiley Lewis - Farewell
TTITLE18=Smiley Lewis - Real Gone Lover
TTITLE19=Smiley Lewis - Bumpity Bump
TTITLE20=Smiley Lewis - I Hear You Knocking
TTITLE21=Boo Breeding - I Can't Fly (Date With An Angel)
TTITLE22=Boo Breeding - My Love (She's Gone)
TTITLE23=Boo Breeding - Low And Lonesome
TTITLE24=Boo Breeding - Country Woman
EXTD=
EXTT0=
EXTT1=
EXTT2=
EXTT3=
EXTT4=
EXTT5=
EXTT6=
EXTT7=
EXTT8=
EXTT9=
EXTT10=
EXTT11=
EXTT12=
EXTT13=
EXTT14=
EXTT15=
EXTT16=
EXTT17=
EXTT18=
EXTT19=
EXTT20=
EXTT21=
EXTT22=
EXTT23=
EXTT24=
PLAYORDER=
